<svg width="20" height="20" viewBox="0 0 20 20" fill="none" xmlns="http://www.w3.org/2000/svg">
<g clip-path="url(#clip0_83_793)">
<g clip-path="url(#clip1_83_793)">
<g clip-path="url(#clip2_83_793)">
<path d="M7.4248 7.10359C7.4248 8.52304 8.5755 10.3163 9.99495 10.3163C11.4144 10.3163 12.5651 8.52304 12.5651 7.10359C12.5651 5.68414 11.4144 4.53345 9.99495 4.53345C8.5755 4.53345 7.4248 5.68414 7.4248 7.10359Z" fill="#E3941C"/>
<path fill-rule="evenodd" clip-rule="evenodd" d="M19.7045 9.99507C19.7045 15.3575 15.3575 19.7045 9.99507 19.7045C4.63271 19.7045 0.285645 15.3575 0.285645 9.99507C0.285645 4.63271 4.63271 0.285645 9.99507 0.285645C15.3575 0.285645 19.7045 4.63271 19.7045 9.99507ZM9.99507 17.7055C14.2534 17.7055 17.7055 14.2534 17.7055 9.99507C17.7055 5.73672 14.2534 2.28464 9.99507 2.28464C5.73672 2.28464 2.28464 5.73672 2.28464 9.99507C2.28464 14.2534 5.73672 17.7055 9.99507 17.7055Z" fill="#E3941C"/>
<path fill-rule="evenodd" clip-rule="evenodd" d="M8.84658 13.9492C8.85515 13.8617 8.86176 13.7924 8.86578 13.747C8.9003 13.3736 8.98449 12.4452 8.99968 12.1968C9.01348 11.9661 9.13357 11.6763 9.21501 11.5033C9.20072 11.5047 9.18656 11.506 9.17271 11.5074C9.09163 11.5153 9.02086 11.5221 8.9914 11.528C8.31182 11.6071 7.9183 11.6052 7.85963 11.605C7.85717 11.6049 7.85401 11.6049 7.85401 11.6049C7.81471 11.6116 7.81195 11.5302 7.80559 11.3428C7.80414 11.2998 7.80249 11.2513 7.80018 11.1971C7.79714 11.1255 7.79418 11.0635 7.79163 11.0101C7.78375 10.8451 7.77976 10.7613 7.78914 10.7261C7.80157 10.678 7.84158 10.6505 8.05968 10.6574C8.27777 10.6642 8.98173 10.6917 9.16946 10.7343C9.41516 10.792 9.47589 10.8524 9.47589 10.8524C9.47589 10.8524 9.53248 10.7096 9.66361 10.7096C9.74476 10.7096 9.78463 10.7199 9.81497 10.7277C9.829 10.7313 9.841 10.7344 9.8541 10.7357H9.88998H9.92587C9.93898 10.7344 9.95097 10.7313 9.965 10.7277C9.99529 10.7199 10.0352 10.7096 10.1163 10.7096C10.2475 10.7096 10.304 10.8524 10.304 10.8524C10.304 10.8524 10.3648 10.792 10.6105 10.7343C10.7982 10.6904 11.4277 10.645 11.6458 10.6382C11.8639 10.6328 11.9038 10.6588 11.9163 10.7068C11.9251 10.7409 11.9221 10.7992 11.9152 10.9339C11.9123 10.9892 11.9088 11.0574 11.9052 11.1421C11.9009 11.2418 11.901 11.3305 11.9011 11.4037C11.9012 11.5178 11.9013 11.5942 11.8845 11.6159C11.8804 11.6214 11.8721 11.631 11.8528 11.6379C11.8114 11.6515 11.6195 11.6543 10.714 11.528C10.6878 11.5184 10.6243 11.5129 10.536 11.506C10.6161 11.6708 10.7541 11.9867 10.7679 12.2339C10.7798 12.4296 10.8355 13.0469 10.8747 13.4828C10.8853 13.6005 10.8947 13.7048 10.9017 13.7841C10.9034 13.8023 10.9053 13.8244 10.9074 13.8501C10.6612 13.9204 10.4063 13.9704 10.1447 13.9981C10.1098 13.4502 10.0446 12.3817 10.0446 12.0635V12.0401C10.0446 12.0114 10.057 11.9413 10.0626 11.9207L10.0667 11.907C10.0842 11.8421 10.1085 11.7684 10.1325 11.6957C10.1349 11.6883 10.1374 11.6809 10.1398 11.6735C10.0474 11.6914 9.9383 11.6845 9.90102 11.6818C9.8679 11.6873 9.73539 11.7038 9.63601 11.6488C9.66775 11.7463 9.6995 11.852 9.71607 11.9592C9.71883 11.9757 9.72296 12.047 9.7202 12.0965C9.70779 12.359 9.65076 13.1416 9.58177 14.0225C9.33119 14.018 9.0856 13.993 8.84658 13.9492Z" fill="#E3941C"/>
<path fill-rule="evenodd" clip-rule="evenodd" d="M9.99525 18.3479C6.80146 18.3479 4.2124 17.3841 4.2124 13.8502C4.2124 12.8227 5.27159 11.5324 6.87074 10.7358L7.70045 17.7054H12.29L13.1197 10.7358C14.7189 11.5324 15.7781 12.8227 15.7781 13.8502C15.7781 17.3841 13.189 18.3479 9.99525 18.3479Z" fill="#E3941C"/>
</g>
</g>
</g>
<defs>
<clipPath id="clip0_83_793">
<rect width="19.99" height="19.99" fill="white"/>
</clipPath>
<clipPath id="clip1_83_793">
<rect width="19.99" height="19.99" fill="white"/>
</clipPath>
<clipPath id="clip2_83_793">
<rect width="19.99" height="19.99" fill="white"/>
</clipPath>
</defs>
</svg>
