<svg width="31" height="31" viewBox="0 0 31 31" fill="none" xmlns="http://www.w3.org/2000/svg">
<g clip-path="url(#clip0_83_627)">
<g clip-path="url(#clip1_83_627)">
<g clip-path="url(#clip2_83_627)">
<path d="M15.6401 29.48C23.5102 29.48 29.8901 23.1 29.8901 15.23C29.8901 7.35992 23.5102 0.97998 15.6401 0.97998C7.77008 0.97998 1.39014 7.35992 1.39014 15.23C1.39014 23.1 7.77008 29.48 15.6401 29.48Z" fill="#202124" stroke="#494949" stroke-width="1.5"/>
<path d="M13.5487 9.82999C11.7264 9.82999 10.2397 11.3167 10.2397 13.139V17.921C10.2397 19.7433 11.7264 21.23 13.5487 21.23H18.3307C20.1531 21.23 21.6397 19.7433 21.6397 17.921V13.139C21.6397 11.3167 20.1531 9.82999 18.3307 9.82999H13.5487ZM13.5487 10.7069H18.3307C19.6786 10.7069 20.7628 11.7894 20.7628 13.139V17.921C20.7628 19.2689 19.6803 20.3531 18.3307 20.3531H13.5487C12.2008 20.3531 11.1166 19.2706 11.1166 17.921V13.139C11.1166 11.7911 12.1991 10.7069 13.5487 10.7069ZM19.2282 11.5839C18.8651 11.5839 18.5705 11.8784 18.5705 12.2415C18.5705 12.6046 18.8651 12.8992 19.2282 12.8992C19.5913 12.8992 19.8859 12.6046 19.8859 12.2415C19.8859 11.8784 19.5913 11.5839 19.2282 11.5839ZM15.9397 12.4608C14.2492 12.4608 12.8705 13.8395 12.8705 15.53C12.8705 17.2205 14.2492 18.5992 15.9397 18.5992C17.6302 18.5992 19.0089 17.2205 19.0089 15.53C19.0089 13.8395 17.6302 12.4608 15.9397 12.4608ZM15.9397 13.3377C17.1558 13.3377 18.132 14.314 18.132 15.53C18.132 16.7461 17.1558 17.7223 15.9397 17.7223C14.7237 17.7223 13.7474 16.7461 13.7474 15.53C13.7474 14.314 14.7237 13.3377 15.9397 13.3377Z" fill="white"/>
</g>
</g>
</g>
<defs>
<clipPath id="clip0_83_627">
<rect width="30" height="30" fill="white" transform="translate(0.640137 0.22998)"/>
</clipPath>
<clipPath id="clip1_83_627">
<rect width="30" height="30" fill="white" transform="translate(0.640137 0.22998)"/>
</clipPath>
<clipPath id="clip2_83_627">
<rect width="30" height="30" fill="white" transform="translate(0.640137 0.22998)"/>
</clipPath>
</defs>
</svg>
