<svg width="31" height="31" viewBox="0 0 31 31" fill="none" xmlns="http://www.w3.org/2000/svg">
<g clip-path="url(#clip0_83_637)">
<g clip-path="url(#clip1_83_637)">
<g clip-path="url(#clip2_83_637)">
<path d="M15.6104 29.48C23.4804 29.48 29.8604 23.1 29.8604 15.23C29.8604 7.35992 23.4804 0.97998 15.6104 0.97998C7.74029 0.97998 1.36035 7.35992 1.36035 15.23C1.36035 23.1 7.74029 29.48 15.6104 29.48Z" fill="#202124" stroke="#494949" stroke-width="1.5"/>
<path d="M22.2104 11.6372C21.7469 11.8423 21.2487 11.9802 20.7256 12.0435C21.2583 11.7235 21.6699 11.2195 21.8623 10.6178C21.3622 10.9129 20.8083 11.1275 20.2197 11.2425C19.7485 10.7424 19.0772 10.43 18.3329 10.43C16.9057 10.43 15.7479 11.5836 15.7479 13.0054C15.7479 13.2066 15.771 13.404 15.8152 13.5918C13.6668 13.4845 11.7627 12.4574 10.4874 10.8995C10.2643 11.2808 10.1374 11.7235 10.1374 12.1968C10.1374 13.0897 10.5932 13.8773 11.2876 14.3391C10.8625 14.3257 10.4643 14.2107 10.1162 14.0172C10.1162 14.0287 10.1162 14.0382 10.1162 14.0497C10.1162 15.2972 11.0068 16.3377 12.1896 16.5753C11.9723 16.6347 11.7453 16.6654 11.5088 16.6654C11.3414 16.6654 11.1799 16.65 11.0222 16.6194C11.3511 17.6407 12.305 18.388 13.436 18.4072C12.5532 19.099 11.4376 19.509 10.2258 19.509C10.0162 19.509 9.8123 19.4975 9.61035 19.4745C10.7529 20.2046 12.1127 20.63 13.5725 20.63C18.3271 20.63 20.9275 16.7056 20.9275 13.3043C20.9275 13.1913 20.9256 13.0801 20.9198 12.969C21.4257 12.6087 21.8642 12.1546 22.2104 11.6372Z" fill="white"/>
</g>
</g>
</g>
<defs>
<clipPath id="clip0_83_637">
<rect width="30" height="30" fill="white" transform="translate(0.610352 0.22998)"/>
</clipPath>
<clipPath id="clip1_83_637">
<rect width="30" height="30" fill="white" transform="translate(0.610352 0.22998)"/>
</clipPath>
<clipPath id="clip2_83_637">
<rect width="30" height="30" fill="white" transform="translate(0.610352 0.22998)"/>
</clipPath>
</defs>
</svg>
