<svg width="31" height="31" viewBox="0 0 31 31" fill="none" xmlns="http://www.w3.org/2000/svg">
<g clip-path="url(#clip0_204_183)">
<g clip-path="url(#clip1_204_183)">
<g clip-path="url(#clip2_204_183)">
<path d="M15.6201 29.48C23.4902 29.48 29.8701 23.1 29.8701 15.23C29.8701 7.35992 23.4902 0.97998 15.6201 0.97998C7.75006 0.97998 1.37012 7.35992 1.37012 15.23C1.37012 23.1 7.75006 29.48 15.6201 29.48Z" fill="#202124" stroke="#494949" stroke-width="1.5"/>
<path d="M16.5947 13.7489V12.3239C16.5947 11.9306 16.8971 11.6114 17.2697 11.6114H17.9447V9.83008H16.5947C15.4762 9.83008 14.5697 10.787 14.5697 11.9676V13.7489H13.2197V15.5301H14.5697V21.2301H16.5947V15.5301H17.9447L18.6197 13.7489H16.5947Z" fill="white"/>
</g>
</g>
</g>
<defs>
<clipPath id="clip0_204_183">
<rect width="30" height="30" fill="white" transform="translate(0.620117 0.22998)"/>
</clipPath>
<clipPath id="clip1_204_183">
<rect width="30" height="30" fill="white" transform="translate(0.620117 0.22998)"/>
</clipPath>
<clipPath id="clip2_204_183">
<rect width="30" height="30" fill="white" transform="translate(0.620117 0.22998)"/>
</clipPath>
</defs>
</svg>
