<svg width="31" height="31" viewBox="0 0 31 31" fill="none" xmlns="http://www.w3.org/2000/svg">
<g clip-path="url(#clip0_204_178)">
<g clip-path="url(#clip1_204_178)">
<g clip-path="url(#clip2_204_178)">
<path d="M15.6401 29.48C23.5102 29.48 29.8901 23.1 29.8901 15.23C29.8901 7.35992 23.5102 0.97998 15.6401 0.97998C7.77008 0.97998 1.39014 7.35992 1.39014 15.23C1.39014 23.1 7.77008 29.48 15.6401 29.48Z" fill="#202124" stroke="#494949" stroke-width="1.5"/>
<path d="M13.5487 9.83008C11.7264 9.83008 10.2397 11.3168 10.2397 13.1391V17.9211C10.2397 19.7434 11.7264 21.2301 13.5487 21.2301H18.3307C20.1531 21.2301 21.6397 19.7434 21.6397 17.9211V13.1391C21.6397 11.3168 20.1531 9.83008 18.3307 9.83008H13.5487ZM13.5487 10.707H18.3307C19.6786 10.707 20.7628 11.7895 20.7628 13.1391V17.9211C20.7628 19.269 19.6803 20.3532 18.3307 20.3532H13.5487C12.2008 20.3532 11.1166 19.2707 11.1166 17.9211V13.1391C11.1166 11.7912 12.1991 10.707 13.5487 10.707ZM19.2282 11.584C18.8651 11.584 18.5705 11.8785 18.5705 12.2416C18.5705 12.6047 18.8651 12.8993 19.2282 12.8993C19.5913 12.8993 19.8859 12.6047 19.8859 12.2416C19.8859 11.8785 19.5913 11.584 19.2282 11.584ZM15.9397 12.4609C14.2492 12.4609 12.8705 13.8396 12.8705 15.5301C12.8705 17.2206 14.2492 18.5993 15.9397 18.5993C17.6302 18.5993 19.0089 17.2206 19.0089 15.5301C19.0089 13.8396 17.6302 12.4609 15.9397 12.4609ZM15.9397 13.3378C17.1558 13.3378 18.132 14.3141 18.132 15.5301C18.132 16.7462 17.1558 17.7224 15.9397 17.7224C14.7237 17.7224 13.7474 16.7462 13.7474 15.5301C13.7474 14.3141 14.7237 13.3378 15.9397 13.3378Z" fill="white"/>
</g>
</g>
</g>
<defs>
<clipPath id="clip0_204_178">
<rect width="30" height="30" fill="white" transform="translate(0.640137 0.22998)"/>
</clipPath>
<clipPath id="clip1_204_178">
<rect width="30" height="30" fill="white" transform="translate(0.640137 0.22998)"/>
</clipPath>
<clipPath id="clip2_204_178">
<rect width="30" height="30" fill="white" transform="translate(0.640137 0.22998)"/>
</clipPath>
</defs>
</svg>
