<svg width="20" height="21" viewBox="0 0 20 21" fill="none" xmlns="http://www.w3.org/2000/svg">
<g clip-path="url(#clip0_137_754)">
<g clip-path="url(#clip1_137_754)">
<path d="M7.4248 7.10335C7.4248 8.5228 8.5755 10.3161 9.99495 10.3161C11.4144 10.3161 12.5651 8.5228 12.5651 7.10335C12.5651 5.6839 11.4144 4.5332 9.99495 4.5332C8.5755 4.5332 7.4248 5.6839 7.4248 7.10335Z" fill="#E3941C"/>
<path fill-rule="evenodd" clip-rule="evenodd" d="M19.7045 9.99507C19.7045 15.3575 15.3575 19.7045 9.99507 19.7045C4.63271 19.7045 0.285645 15.3575 0.285645 9.99507C0.285645 4.63271 4.63271 0.285645 9.99507 0.285645C15.3575 0.285645 19.7045 4.63271 19.7045 9.99507ZM9.99507 17.7055C14.2534 17.7055 17.7055 14.2534 17.7055 9.99507C17.7055 5.73672 14.2534 2.28464 9.99507 2.28464C5.73672 2.28464 2.28464 5.73672 2.28464 9.99507C2.28464 14.2534 5.73672 17.7055 9.99507 17.7055Z" fill="#E3941C"/>
<path fill-rule="evenodd" clip-rule="evenodd" d="M8.84658 13.9494C8.85515 13.862 8.86176 13.7926 8.86578 13.7472C8.9003 13.3738 8.98449 12.4455 8.99968 12.197C9.01348 11.9663 9.13357 11.6766 9.21501 11.5036C9.20072 11.505 9.18656 11.5063 9.17271 11.5077C9.09163 11.5156 9.02086 11.5224 8.9914 11.5283C8.31182 11.6073 7.9183 11.6054 7.85963 11.6052C7.85717 11.6051 7.85401 11.6051 7.85401 11.6051C7.81471 11.6118 7.81195 11.5304 7.80559 11.343C7.80414 11.3001 7.80249 11.2516 7.80018 11.1973C7.79714 11.1258 7.79418 11.0638 7.79163 11.0103C7.78375 10.8454 7.77976 10.7615 7.78914 10.7264C7.80157 10.6783 7.84158 10.6508 8.05968 10.6577C8.27777 10.6645 8.98173 10.692 9.16946 10.7345C9.41516 10.7922 9.47589 10.8527 9.47589 10.8527C9.47589 10.8527 9.53248 10.7099 9.66361 10.7099C9.74476 10.7099 9.78463 10.7202 9.81497 10.728C9.829 10.7315 9.841 10.7346 9.8541 10.7359H9.88998H9.92587C9.93898 10.7346 9.95097 10.7315 9.965 10.728C9.99529 10.7202 10.0352 10.7099 10.1163 10.7099C10.2475 10.7099 10.304 10.8527 10.304 10.8527C10.304 10.8527 10.3648 10.7922 10.6105 10.7345C10.7982 10.6907 11.4277 10.6453 11.6458 10.6384C11.8639 10.633 11.9038 10.6591 11.9163 10.7071C11.9251 10.7411 11.9221 10.7994 11.9152 10.9341C11.9123 10.9894 11.9088 11.0577 11.9052 11.1423C11.9009 11.2421 11.901 11.3307 11.9011 11.4039C11.9012 11.5181 11.9013 11.5944 11.8845 11.6161C11.8804 11.6216 11.8721 11.6312 11.8528 11.6381C11.8114 11.6518 11.6195 11.6546 10.714 11.5283C10.6878 11.5187 10.6243 11.5132 10.536 11.5063C10.6161 11.6711 10.7541 11.9869 10.7679 12.2341C10.7798 12.4298 10.8355 13.0472 10.8747 13.4831C10.8853 13.6007 10.8947 13.7051 10.9017 13.7843C10.9034 13.8025 10.9053 13.8246 10.9074 13.8504C10.6612 13.9207 10.4063 13.9706 10.1447 13.9983C10.1098 13.4505 10.0446 12.3819 10.0446 12.0638V12.0404C10.0446 12.0116 10.057 11.9415 10.0626 11.921L10.0667 11.9073C10.0842 11.8424 10.1085 11.7686 10.1325 11.696C10.1349 11.6886 10.1374 11.6812 10.1398 11.6738C10.0474 11.6917 9.9383 11.6848 9.90102 11.6821C9.8679 11.6876 9.73539 11.7041 9.63601 11.6491C9.66775 11.7465 9.6995 11.8523 9.71607 11.9594C9.71883 11.9759 9.72296 12.0473 9.7202 12.0968C9.70779 12.3592 9.65076 13.1418 9.58177 14.0227C9.33119 14.0182 9.0856 13.9932 8.84658 13.9494Z" fill="#E3941C"/>
<path fill-rule="evenodd" clip-rule="evenodd" d="M9.99525 18.3479C6.80146 18.3479 4.2124 17.3841 4.2124 13.8502C4.2124 12.8227 5.27159 11.5324 6.87074 10.7358L7.70045 17.7054H12.29L13.1197 10.7358C14.7189 11.5324 15.7781 12.8227 15.7781 13.8502C15.7781 17.3841 13.189 18.3479 9.99525 18.3479Z" fill="#E3941C"/>
</g>
</g>
<defs>
<clipPath id="clip0_137_754">
<rect width="19.99" height="19.99" fill="white"/>
</clipPath>
<clipPath id="clip1_137_754">
<rect width="19.99" height="19.99" fill="white"/>
</clipPath>
</defs>
</svg>
