<svg width="32" height="32" viewBox="0 0 32 32" fill="none" xmlns="http://www.w3.org/2000/svg">
<g clip-path="url(#clip0_137_770)">
<path d="M22.9996 9H17.9996L12.2921 14.5363C12.186 14.6423 12.1051 14.7709 12.0554 14.9124C12.0058 15.054 11.9886 15.2049 12.0051 15.354C12.0217 15.5031 12.0716 15.6465 12.1511 15.7737C12.2307 15.9009 12.3378 16.0086 12.4646 16.0888C14.6533 17.4875 17.6246 17.3912 19.9996 15L24.9996 19L26.9996 17" stroke="black" stroke-width="2" stroke-linecap="round" stroke-linejoin="round"/>
<path d="M25 19L20 24L12 22L5 17" stroke="black" stroke-width="2" stroke-linecap="round" stroke-linejoin="round"/>
<path d="M7 24L10 26L14 27" stroke="black" stroke-width="2" stroke-linecap="round" stroke-linejoin="round"/>
<path d="M9 9L16 7L23 9" stroke="black" stroke-width="2" stroke-linecap="round" stroke-linejoin="round"/>
<path d="M4.55266 7.89516L1.44766 14.1052C1.3888 14.2227 1.35369 14.3506 1.34434 14.4817C1.33498 14.6128 1.35155 14.7445 1.39311 14.8692C1.43468 14.9939 1.50041 15.1091 1.58655 15.2084C1.6727 15.3076 1.77756 15.389 1.89516 15.4477L5.00016 17.0002L9.00016 9.00016L5.89516 7.44766C5.77764 7.3888 5.64967 7.35369 5.51858 7.34434C5.38748 7.33498 5.25583 7.35155 5.13114 7.39311C5.00646 7.43468 4.89119 7.50041 4.79193 7.58655C4.69266 7.6727 4.61136 7.77756 4.55266 7.89516Z" stroke="black" stroke-width="2" stroke-linecap="round" stroke-linejoin="round"/>
<path d="M26.105 7.44766L23 9.00016L27 17.0002L30.105 15.4477C30.2226 15.389 30.3275 15.3076 30.4136 15.2084C30.4997 15.1091 30.5655 14.9939 30.607 14.8692C30.6486 14.7445 30.6652 14.6128 30.6558 14.4817C30.6465 14.3506 30.6114 14.2227 30.5525 14.1052L27.4475 7.89516C27.3888 7.77756 27.3075 7.6727 27.2082 7.58655C27.109 7.50041 26.9937 7.43468 26.869 7.39311C26.7443 7.35155 26.6127 7.33498 26.4816 7.34434C26.3505 7.35369 26.2225 7.3888 26.105 7.44766Z" stroke="black" stroke-width="2" stroke-linecap="round" stroke-linejoin="round"/>
</g>
<defs>
<clipPath id="clip0_137_770">
<rect width="32" height="32" fill="white"/>
</clipPath>
</defs>
</svg>
