<svg width="31" height="31" viewBox="0 0 31 31" fill="none" xmlns="http://www.w3.org/2000/svg">
<g clip-path="url(#clip0_176_310)">
<g clip-path="url(#clip1_176_310)">
<g clip-path="url(#clip2_176_310)">
<path d="M15.6104 29.48C23.4804 29.48 29.8604 23.1 29.8604 15.23C29.8604 7.35992 23.4804 0.97998 15.6104 0.97998C7.74029 0.97998 1.36035 7.35992 1.36035 15.23C1.36035 23.1 7.74029 29.48 15.6104 29.48Z" fill="#202124" stroke="#494949" stroke-width="1.5"/>
<path d="M22.2104 11.6374C21.7469 11.8425 21.2487 11.9804 20.7256 12.0437C21.2583 11.7237 21.6699 11.2197 21.8623 10.618C21.3622 10.9131 20.8083 11.1277 20.2197 11.2427C19.7485 10.7426 19.0772 10.4302 18.3329 10.4302C16.9057 10.4302 15.7479 11.5838 15.7479 13.0056C15.7479 13.2068 15.771 13.4042 15.8152 13.592C13.6668 13.4847 11.7627 12.4576 10.4874 10.8997C10.2643 11.281 10.1374 11.7237 10.1374 12.197C10.1374 13.0899 10.5932 13.8775 11.2876 14.3393C10.8625 14.3259 10.4643 14.2109 10.1162 14.0174C10.1162 14.0289 10.1162 14.0384 10.1162 14.0499C10.1162 15.2974 11.0068 16.3379 12.1896 16.5755C11.9723 16.6349 11.7453 16.6656 11.5088 16.6656C11.3414 16.6656 11.1799 16.6502 11.0222 16.6196C11.3511 17.6409 12.305 18.3882 13.436 18.4074C12.5532 19.0992 11.4376 19.5092 10.2258 19.5092C10.0162 19.5092 9.8123 19.4977 9.61035 19.4747C10.7529 20.2048 12.1127 20.6302 13.5725 20.6302C18.3271 20.6302 20.9275 16.7058 20.9275 13.3045C20.9275 13.1915 20.9256 13.0803 20.9198 12.9692C21.4257 12.6089 21.8642 12.1548 22.2104 11.6374Z" fill="white"/>
</g>
</g>
</g>
<defs>
<clipPath id="clip0_176_310">
<rect width="30" height="30" fill="white" transform="translate(0.610352 0.22998)"/>
</clipPath>
<clipPath id="clip1_176_310">
<rect width="30" height="30" fill="white" transform="translate(0.610352 0.22998)"/>
</clipPath>
<clipPath id="clip2_176_310">
<rect width="30" height="30" fill="white" transform="translate(0.610352 0.22998)"/>
</clipPath>
</defs>
</svg>
