<svg width="216" height="56" viewBox="0 0 216 56" fill="none" xmlns="http://www.w3.org/2000/svg">
<path d="M19.0266 18.1414V35.7062C19.0266 38.9604 18.2309 41.4331 16.6394 43.1242C15.0717 44.7897 12.8626 45.6225 10.0121 45.6225C6.94793 45.6225 4.51319 44.7129 2.70791 42.8936C0.902638 41.0744 0 38.4223 0 34.9375H7.80306C7.80306 36.0393 7.96934 36.8209 8.30189 37.2821C8.63444 37.7177 9.08576 37.9355 9.65585 37.9355C10.1309 37.9355 10.4991 37.7689 10.7604 37.4358C11.0217 37.1027 11.1523 36.5262 11.1523 35.7062V18.1414H19.0266Z" fill="black"/>
<path d="M43.713 23.676V45.3535H35.803V42.048C35.1854 43.073 34.354 43.9057 33.3089 44.5463C32.2875 45.1869 31.0642 45.5072 29.6389 45.5072C27.3348 45.5072 25.5296 44.6744 24.2231 43.0089C22.9404 41.3434 22.2991 39.0885 22.2991 36.2443V23.676H30.1734V35.1682C30.1734 36.1931 30.4228 37.013 30.9216 37.628C31.4442 38.2173 32.1331 38.512 32.9882 38.512C33.8671 38.512 34.5559 38.2173 35.0548 37.628C35.5536 37.013 35.803 36.1931 35.803 35.1682V23.676H43.713Z" fill="black"/>
<path d="M56.2287 45.6225C54.3284 45.6225 52.6419 45.2894 51.1692 44.6232C49.7202 43.957 48.5682 43.0345 47.713 41.8559C46.8579 40.6772 46.371 39.3448 46.2522 37.8586H53.8415C53.9365 38.4992 54.1859 38.9732 54.5897 39.2807C55.0173 39.5882 55.5517 39.7419 56.1931 39.7419C56.5969 39.7419 56.9176 39.6523 57.1551 39.4729C57.3926 39.2679 57.5114 39.0245 57.5114 38.7426C57.5114 38.2558 57.262 37.9099 56.7632 37.7049C56.2643 37.4999 55.4211 37.2693 54.2334 37.013C52.7844 36.7056 51.5849 36.3725 50.6347 36.0137C49.7083 35.655 48.8888 35.04 48.1762 34.1688C47.4874 33.2976 47.143 32.0933 47.143 30.5559C47.143 29.2235 47.4636 28.0192 48.105 26.943C48.7701 25.8412 49.744 24.9828 51.0267 24.3679C52.3094 23.7273 53.8652 23.407 55.6943 23.407C58.4022 23.407 60.5162 24.1245 62.0365 25.5594C63.5805 26.9943 64.5069 28.8648 64.8156 31.1709H57.7964C57.6777 30.5816 57.4283 30.1332 57.0482 29.8257C56.6681 29.4926 56.1575 29.326 55.5161 29.326C55.1123 29.326 54.8035 29.4157 54.5897 29.5951C54.3759 29.7488 54.269 29.9922 54.269 30.3253C54.269 30.7609 54.5184 31.094 55.0173 31.3246C55.5161 31.5296 56.3119 31.7474 57.4045 31.978C58.8535 32.2855 60.0768 32.6314 61.0744 33.0158C62.0721 33.4001 62.9391 34.0663 63.6755 35.0144C64.4118 35.9369 64.78 37.218 64.78 38.8579C64.78 40.1391 64.4356 41.2922 63.7467 42.3171C63.0579 43.342 62.0602 44.1492 60.7538 44.7385C59.4711 45.3278 57.9627 45.6225 56.2287 45.6225Z" fill="black"/>
<path d="M80.4254 38.0892V45.3535H77.4324C71.9216 45.3535 69.1662 42.394 69.1662 36.4749V30.7865H66.672V23.676H69.1662V18.4489H77.0761V23.676H80.3541V30.7865H77.0761V36.6287C77.0761 37.1412 77.183 37.5127 77.3968 37.7433C77.6343 37.9739 78.0144 38.0892 78.537 38.0892H80.4254Z" fill="black"/>
<path d="M106.381 31.4015C107.901 31.7859 109.077 32.5802 109.908 33.7845C110.764 34.9632 111.191 36.334 111.191 37.897C111.191 40.28 110.455 42.1249 108.982 43.4317C107.533 44.7129 105.443 45.3535 102.711 45.3535H89.4922V18.1414H102.355C104.92 18.1414 106.939 18.7435 108.412 19.9478C109.885 21.1521 110.621 22.9073 110.621 25.2135C110.621 26.8021 110.229 28.1473 109.445 29.2491C108.685 30.3253 107.664 31.0428 106.381 31.4015ZM97.4022 28.7495H100.466C101.179 28.7495 101.702 28.5957 102.034 28.2883C102.39 27.9808 102.569 27.5067 102.569 26.8662C102.569 26.2 102.39 25.7131 102.034 25.4056C101.702 25.0725 101.179 24.906 100.466 24.906H97.4022V28.7495ZM101.001 38.512C101.713 38.512 102.236 38.3711 102.569 38.0892C102.925 37.7817 103.103 37.2949 103.103 36.6287C103.103 35.3219 102.402 34.6685 101.001 34.6685H97.4022V38.512H101.001Z" fill="#FF9900"/>
<path d="M135.12 23.676V45.3535H127.21V42.048C126.593 43.073 125.761 43.9057 124.716 44.5463C123.695 45.1869 122.472 45.5072 121.046 45.5072C118.742 45.5072 116.937 44.6744 115.63 43.0089C114.348 41.3434 113.706 39.0885 113.706 36.2443V23.676H121.581V35.1682C121.581 36.1931 121.83 37.013 122.329 37.628C122.852 38.2173 123.54 38.512 124.396 38.512C125.274 38.512 125.963 38.2173 126.462 37.628C126.961 37.013 127.21 36.1931 127.21 35.1682V23.676H135.12Z" fill="#FF9900"/>
<path d="M146.603 27.6733C147.41 26.4178 148.396 25.4184 149.56 24.6754C150.724 23.9067 151.935 23.5223 153.194 23.5223V32.6314H150.95C149.453 32.6314 148.349 32.9133 147.636 33.477C146.947 34.0407 146.603 35.04 146.603 36.4749V45.3535H138.693V23.676H146.603V27.6733Z" fill="#FF9900"/>
<path d="M162.558 23.407C163.864 23.407 164.993 23.7017 165.943 24.291C166.893 24.8547 167.617 25.6362 168.116 26.6355V23.676H175.991V44.9691C175.991 46.9934 175.646 48.8382 174.957 50.5038C174.269 52.1693 173.152 53.5017 171.608 54.501C170.088 55.5003 168.128 56 165.729 56C162.499 56 159.933 55.18 158.033 53.5401C156.156 51.9259 155.087 49.7223 154.826 46.9293H162.594C162.807 48.0567 163.663 48.6205 165.159 48.6205C166.085 48.6205 166.81 48.3642 167.332 47.8517C167.855 47.3393 168.116 46.3784 168.116 44.9691V42.394C167.617 43.3933 166.893 44.1876 165.943 44.7769C164.993 45.3407 163.864 45.6225 162.558 45.6225C160.99 45.6225 159.577 45.1869 158.318 44.3157C157.059 43.4189 156.061 42.1377 155.325 40.4722C154.612 38.7811 154.256 36.7952 154.256 34.5148C154.256 32.2343 154.612 30.2613 155.325 28.5957C156.061 26.9046 157.059 25.6234 158.318 24.7522C159.577 23.8554 160.99 23.407 162.558 23.407ZM168.116 34.5148C168.116 33.3617 167.843 32.4649 167.297 31.8243C166.75 31.1837 166.05 30.8634 165.195 30.8634C164.339 30.8634 163.639 31.1837 163.092 31.8243C162.546 32.4649 162.273 33.3617 162.273 34.5148C162.273 35.6678 162.546 36.5646 163.092 37.2052C163.639 37.8458 164.339 38.1661 165.195 38.1661C166.05 38.1661 166.75 37.8458 167.297 37.2052C167.843 36.5646 168.116 35.6678 168.116 34.5148Z" fill="#FF9900"/>
<path d="M198.997 34.3226C198.997 34.9119 198.961 35.4756 198.89 36.0137H186.17C186.289 37.8842 187.013 38.8195 188.343 38.8195C189.198 38.8195 189.816 38.3967 190.196 37.5511H198.569C198.284 39.0885 197.678 40.4722 196.752 41.7021C195.849 42.9064 194.697 43.8673 193.296 44.5848C191.918 45.2766 190.398 45.6225 188.735 45.6225C186.74 45.6225 184.958 45.1741 183.391 44.2773C181.847 43.3805 180.635 42.0993 179.756 40.4338C178.901 38.7426 178.474 36.7696 178.474 34.5148C178.474 32.2599 178.901 30.2997 179.756 28.6342C180.635 26.943 181.847 25.649 183.391 24.7522C184.958 23.8554 186.74 23.407 188.735 23.407C190.73 23.407 192.5 23.8554 194.044 24.7522C195.612 25.6234 196.823 26.879 197.678 28.5189C198.557 30.1588 198.997 32.0933 198.997 34.3226ZM190.98 32.2855C190.98 31.5681 190.766 31.03 190.339 30.6712C189.911 30.2869 189.377 30.0947 188.735 30.0947C187.334 30.0947 186.514 30.825 186.277 32.2855H190.98Z" fill="#FF9900"/>
<path d="M209.408 27.6733C210.216 26.4178 211.202 25.4184 212.366 24.6754C213.53 23.9067 214.741 23.5223 216 23.5223V32.6314H213.755C212.259 32.6314 211.154 32.9133 210.442 33.477C209.753 34.0407 209.408 35.04 209.408 36.4749V45.3535H201.498V23.676H209.408V27.6733Z" fill="#FF9900"/>
<path d="M106.482 11.9973H90.2702C89.7741 11.9973 89.2983 12.2682 88.9475 12.7503C88.5967 13.2325 88.3996 13.8864 88.3996 14.5682C88.3996 15.25 88.5967 15.9039 88.9475 16.3861C89.2983 16.8682 89.7741 17.1391 90.2702 17.1391H106.482C106.978 17.1391 107.454 16.8682 107.805 16.3861C108.156 15.9039 108.353 15.25 108.353 14.5682C108.353 13.8864 108.156 13.2325 107.805 12.7503C107.454 12.2682 106.978 11.9973 106.482 11.9973ZM90.6849 10.2834H106.067C107.415 10.2834 108.196 7.93217 107.424 6.21933C105.859 2.74225 102.412 0.00535596 98.3762 0C94.3411 0.00535596 90.8938 2.74225 89.3279 6.2188C88.5555 7.93163 89.3377 10.2834 90.6849 10.2834ZM103.364 4.28476C103.488 4.28476 103.608 4.33502 103.711 4.42919C103.813 4.52335 103.893 4.65719 103.94 4.81378C103.988 4.97036 104 5.14267 103.976 5.3089C103.952 5.47513 103.893 5.62783 103.805 5.74767C103.718 5.86752 103.607 5.94914 103.486 5.9822C103.365 6.01527 103.24 5.9983 103.126 5.93344C103.012 5.86858 102.914 5.75874 102.846 5.61781C102.777 5.47689 102.741 5.31121 102.741 5.14172C102.741 4.91444 102.807 4.69647 102.924 4.53576C103.04 4.37505 103.199 4.28476 103.364 4.28476ZM98.3762 2.57086C98.4995 2.57086 98.62 2.62112 98.7226 2.71528C98.8251 2.80944 98.905 2.94328 98.9522 3.09987C98.9994 3.25646 99.0118 3.42876 98.9877 3.59499C98.9637 3.76123 98.9043 3.91392 98.8171 4.03377C98.7299 4.15361 98.6188 4.23523 98.4978 4.2683C98.3769 4.30136 98.2515 4.28439 98.1375 4.21953C98.0236 4.15467 97.9262 4.04483 97.8577 3.90391C97.7892 3.76298 97.7526 3.5973 97.7526 3.42781C97.7526 3.20053 97.8183 2.98256 97.9353 2.82185C98.0522 2.66114 98.2108 2.57086 98.3762 2.57086ZM93.3879 4.28476C93.5112 4.28476 93.6318 4.33502 93.7343 4.42919C93.8369 4.52335 93.9168 4.65719 93.964 4.81378C94.0112 4.97036 94.0235 5.14267 93.9995 5.3089C93.9754 5.47513 93.916 5.62783 93.8288 5.74767C93.7416 5.86752 93.6305 5.94914 93.5095 5.9822C93.3886 6.01527 93.2632 5.9983 93.1493 5.93344C93.0353 5.86858 92.938 5.75874 92.8695 5.61781C92.8009 5.47689 92.7644 5.31121 92.7644 5.14172C92.7644 4.91444 92.8301 4.69647 92.947 4.53576C93.0639 4.37505 93.2225 4.28476 93.3879 4.28476Z" fill="#FF9900"/>
</svg>
