<svg width="27" height="24" viewBox="0 0 27 24" fill="none" xmlns="http://www.w3.org/2000/svg">
<path d="M8.77075 15.2984L1.70786 12.9234C1.50018 12.8533 1.32098 12.7267 1.19442 12.5607C1.06785 12.3946 1 12.1971 1 11.9947C1 11.7923 1.06785 11.5947 1.19442 11.4287C1.32098 11.2626 1.50018 11.136 1.70786 11.0659L8.77075 8.69093C8.91781 8.6417 9.05136 8.56374 9.1621 8.46249C9.27284 8.36124 9.35811 8.23914 9.41196 8.10468L12.0096 1.64718C12.0863 1.4573 12.2247 1.29347 12.4064 1.17775C12.588 1.06204 12.8041 1 13.0254 1C13.2468 1 13.4629 1.06204 13.6445 1.17775C13.8261 1.29347 13.9646 1.4573 14.0413 1.64718L16.6389 8.10468C16.6928 8.23914 16.778 8.36124 16.8888 8.46249C16.9995 8.56374 17.1331 8.6417 17.2801 8.69093L24.343 11.0659C24.5507 11.136 24.7299 11.2626 24.8565 11.4287C24.983 11.5947 25.0509 11.7923 25.0509 11.9947C25.0509 12.1971 24.983 12.3946 24.8565 12.5607C24.7299 12.7267 24.5507 12.8533 24.343 12.9234L17.2801 15.2984C17.1331 15.3477 16.9995 15.4256 16.8888 15.5269C16.778 15.6281 16.6928 15.7502 16.6389 15.8847L14.0413 22.3422C13.9646 22.5321 13.8261 22.6959 13.6445 22.8116C13.4629 22.9273 13.2468 22.9894 13.0254 22.9894C12.8041 22.9894 12.588 22.9273 12.4064 22.8116C12.2247 22.6959 12.0863 22.5321 12.0096 22.3422L9.41196 15.8847C9.35811 15.7502 9.27284 15.6281 9.1621 15.5269C9.05136 15.4256 8.91781 15.3477 8.77075 15.2984Z" stroke="black" stroke-width="2" stroke-linecap="round" stroke-linejoin="round"/>
</svg>
